<svg width="19" height="16" viewBox="0 0 19 16" fill="none" xmlns="http://www.w3.org/2000/svg">
<path d="M17.396 0.5H1.146C0.930508 0.5 0.723845 0.585603 0.571472 0.737976C0.419099 0.890349 0.333496 1.09701 0.333496 1.3125C0.333496 1.52799 0.419099 1.73465 0.571472 1.88702C0.723845 2.0394 0.930508 2.125 1.146 2.125H17.396C17.6115 2.125 17.8181 2.0394 17.9705 1.88702C18.1229 1.73465 18.2085 1.52799 18.2085 1.3125C18.2085 1.09701 18.1229 0.890349 17.9705 0.737976C17.8181 0.585603 17.6115 0.5 17.396 0.5ZM9.271 11.875C9.05551 11.875 8.84885 11.9606 8.69647 12.113C8.5441 12.2653 8.4585 12.472 8.4585 12.6875V15.125C8.4585 15.3405 8.5441 15.5472 8.69647 15.6995C8.84885 15.8519 9.05551 15.9375 9.271 15.9375C9.48648 15.9375 9.69315 15.8519 9.84552 15.6995C9.99789 15.5472 10.0835 15.3405 10.0835 15.125V12.6875C10.0835 12.472 9.99789 12.2653 9.84552 12.113C9.69315 11.9606 9.48648 11.875 9.271 11.875ZM14.146 11.875C13.9305 11.875 13.7238 11.9606 13.5715 12.113C13.4191 12.2653 13.3335 12.472 13.3335 12.6875V15.125C13.3335 15.3405 13.4191 15.5472 13.5715 15.6995C13.7238 15.8519 13.9305 15.9375 14.146 15.9375C14.3615 15.9375 14.5681 15.8519 14.7205 15.6995C14.8729 15.5472 14.9585 15.3405 14.9585 15.125V12.6875C14.9585 12.472 14.8729 12.2653 14.7205 12.113C14.5681 11.9606 14.3615 11.875 14.146 11.875ZM4.396 11.875C4.18051 11.875 3.97385 11.9606 3.82147 12.113C3.6691 12.2653 3.5835 12.472 3.5835 12.6875V15.125C3.5835 15.3405 3.6691 15.5472 3.82147 15.6995C3.97385 15.8519 4.18051 15.9375 4.396 15.9375C4.61148 15.9375 4.81815 15.8519 4.97052 15.6995C5.12289 15.5472 5.2085 15.3405 5.2085 15.125V12.6875C5.2085 12.472 5.12289 12.2653 4.97052 12.113C4.81815 11.9606 4.61148 11.875 4.396 11.875Z" fill="black"/>
</svg>
