<svg width="10" height="16" viewBox="0 0 10 16" fill="none" xmlns="http://www.w3.org/2000/svg">
<path fill-rule="evenodd" clip-rule="evenodd" d="M9.66684 0.233596C9.48726 0.0835163 9.24906 0 9.0014 0C8.75374 0 8.51554 0.0835163 8.33596 0.233596L0.551501 6.84499C0.377249 6.99072 0.238492 7.16583 0.14368 7.36023C0.0488688 7.55463 0 7.76432 0 7.97586C0 8.18741 0.0488688 8.39671 0.14368 8.5911C0.238492 8.7855 0.377249 8.96061 0.551501 9.10634L8.39231 15.7666C8.75594 16.0746 9.34503 16.0784 9.71412 15.7744C9.80347 15.702 9.87495 15.6143 9.92413 15.5166C9.9733 15.4188 9.99913 15.3133 9.99998 15.2064C10.0008 15.0995 9.97671 14.9934 9.9291 14.8951C9.88148 14.7967 9.81141 14.708 9.72322 14.6345L2.54785 8.54071C2.46065 8.46784 2.39122 8.38013 2.34377 8.2829C2.29633 8.18566 2.27184 8.0813 2.27184 7.97547C2.27184 7.86965 2.29633 7.76489 2.34377 7.66766C2.39122 7.57042 2.46065 7.48271 2.54785 7.40984L9.66593 1.36408C9.7531 1.29128 9.82251 1.20343 9.86995 1.10626C9.91739 1.00909 9.94186 0.904595 9.94186 0.798836C9.94186 0.693078 9.91739 0.588582 9.86995 0.491411C9.82251 0.394241 9.7531 0.306397 9.66593 0.233596" fill="white"/>
</svg>
