<svg width="20" height="18" viewBox="0 0 20 18" fill="none" xmlns="http://www.w3.org/2000/svg">
<path d="M0.25 8.97671C0.25 11.5767 1.44167 13.96 3.28333 15.4767C2.74167 15.585 2.41667 16.0184 2.41667 16.56C2.41667 17.21 2.85 17.6434 3.5 17.6434H8.91667H11.0833H16.5C17.15 17.6434 17.5833 17.21 17.5833 16.56C17.5833 16.0184 17.2583 15.585 16.7167 15.4767C18.5583 13.8517 19.75 11.5767 19.75 8.97671C19.75 8.32671 19.3167 7.89337 18.6667 7.89337H1.33333C0.683333 7.89337 0.25 8.32671 0.25 8.97671ZM17.475 10.06C16.9333 13.0934 14.3333 15.4767 11.0833 15.4767H8.91667C5.66667 15.4767 3.06667 13.0934 2.525 10.06H17.475ZM4.58333 4.64337C5.01667 4.64337 5.34167 4.42671 5.55833 3.99337L6.64167 1.82671C6.85833 1.28504 6.64167 0.63504 6.20833 0.418373C5.66667 0.201707 5.01667 0.418373 4.69167 0.96004L3.60833 3.12671C3.39167 3.56004 3.60833 4.21004 4.15 4.53504C4.25833 4.64337 4.36667 4.64337 4.58333 4.64337ZM10 4.64337C10.4333 4.64337 10.7583 4.42671 10.975 3.99337L12.0583 1.82671C12.275 1.28504 12.0583 0.63504 11.625 0.418373C11.0833 0.201707 10.4333 0.418373 10.2167 0.851707L9.13333 3.01837C8.91667 3.56004 9.13333 4.21004 9.56667 4.42671C9.675 4.64337 9.78333 4.64337 10 4.64337ZM15.4167 4.64337C15.85 4.64337 16.175 4.42671 16.3917 3.99337L17.475 1.82671C17.6917 1.28504 17.475 0.63504 17.0417 0.418373C16.5 0.201707 15.85 0.418373 15.6333 0.851707L14.55 3.01837C14.3333 3.56004 14.55 4.21004 14.9833 4.42671C15.0917 4.64337 15.2 4.64337 15.4167 4.64337Z" fill="black"/>
</svg>
