<svg width="22" height="22" viewBox="0 0 22 22" fill="none" xmlns="http://www.w3.org/2000/svg">
<path d="M10.9998 9.80829C10.3444 9.80829 9.80817 10.3445 9.80817 11C9.80817 11.6554 10.3444 12.1916 10.9998 12.1916C11.6607 12.1916 12.1915 11.6554 12.1915 11C12.1915 10.3445 11.6607 9.80829 10.9998 9.80829ZM10.9998 0.166626C5.01442 0.166626 0.166504 5.01454 0.166504 11C0.166504 16.98 5.01442 21.8333 10.9998 21.8333C16.9853 21.8333 21.8332 16.98 21.8332 11C21.8332 5.01454 16.9853 0.166626 10.9998 0.166626ZM13.3723 13.3725L4.49984 17.5L8.62734 8.62746L17.4998 4.49996L13.3723 13.3725Z" fill="#AFAFAF"/>
</svg>
