<svg width="22" height="20" viewBox="0 0 22 20" fill="none" xmlns="http://www.w3.org/2000/svg">
<path d="M21.3748 4.53487C20.4457 1.90049 18.7279 0.500503 16.1171 0.267172C13.8195 0.0601849 11.9145 1.77253 10.9998 2.81123C10.0851 1.78759 8.17653 0.0601849 5.88259 0.267172C3.27174 0.500503 1.56119 1.89673 0.624891 4.53487C0.201827 5.83571 0.0691702 7.22046 0.237075 8.58312C0.404981 9.94578 0.868996 11.2502 1.5936 12.3966C4.0676 16.3708 8.66989 18.9148 10.755 19.7052C10.9132 19.7649 11.0865 19.7649 11.2447 19.7052C13.3298 18.9148 17.9321 16.3708 20.4061 12.3966C21.1307 11.2502 21.5947 9.94578 21.7626 8.58312C21.9305 7.22046 21.7978 5.83571 21.3748 4.53487ZM19.2825 5.00906C19.1727 5.07408 19.0486 5.10782 18.9224 5.10691C18.7961 5.10678 18.672 5.07193 18.5627 5.00588C18.4533 4.93982 18.3625 4.84488 18.2994 4.73057C17.7844 3.80477 17.057 3.36445 15.8722 3.25908H15.7426C15.648 3.26402 15.5534 3.24945 15.4642 3.21619C15.375 3.18293 15.293 3.13163 15.2227 3.06524C15.0809 2.93114 14.9959 2.74366 14.9863 2.54403C14.9768 2.34441 15.0435 2.149 15.1718 2.00078C15.3001 1.85257 15.4795 1.7637 15.6705 1.75372H15.7426C15.8254 1.75372 15.9118 1.75372 15.9946 1.75372C16.0775 1.75372 16.2467 1.78006 16.3548 1.79888C16.4628 1.81769 16.5852 1.83651 16.7149 1.85909C16.8265 1.88167 16.9382 1.90802 17.0462 1.94189C17.1542 1.97576 17.2623 2.00963 17.3631 2.04726C17.4639 2.0849 17.5467 2.115 17.6332 2.1564C18.059 2.3516 18.4489 2.62286 18.7855 2.95801C18.9281 3.09717 19.0583 3.24959 19.1745 3.41338C19.3293 3.61951 19.4679 3.83852 19.5886 4.06821C19.6557 4.23713 19.6616 4.42579 19.6053 4.59893C19.5489 4.77208 19.4342 4.91787 19.2825 5.00906Z" fill="#AFAFAF"/>
</svg>
