<svg width="22" height="22" viewBox="0 0 22 22" fill="none" xmlns="http://www.w3.org/2000/svg">
<path d="M16.6031 21.3912C16.58 21.3543 15.4628 19.1762 14.1206 16.5511C12.7783 13.9259 11.6593 11.7564 11.6338 11.7301C11.604 11.6994 10.8937 12.3861 9.64887 13.649C7.83036 15.4939 7.71035 15.6263 7.71105 15.7881C7.71146 15.883 7.7862 16.5806 7.87714 17.3384L8.04248 18.7162L7.25665 19.5171L6.47082 20.318L5.5589 18.5564L4.64697 16.7949L2.93076 15.8856C1.98685 15.3856 1.21407 14.9651 1.21349 14.9513C1.2129 14.9374 1.55948 14.5744 1.98366 14.1446L2.75489 13.3631L4.2677 13.5495L5.78051 13.7358L7.73998 11.7481C9.26802 10.1981 9.68454 9.74965 9.63171 9.71128C9.59445 9.68422 7.41207 8.51073 4.78198 7.10353L0 4.54498L0.987548 3.54286L1.9751 2.54075L7.87779 4.12811L13.7805 5.71548L16.4795 2.98207C18.3713 1.06616 19.2438 0.21544 19.3968 0.137602C19.5376 0.0659139 19.736 0.0185262 19.9564 0.00391588C20.39 -0.0248285 20.7126 0.103769 20.9996 0.419705C21.2663 0.713291 21.3527 0.934752 21.3515 1.32149C21.3497 1.91883 21.383 1.87842 18.352 4.96281L15.62 7.743L16.8001 12.3685C17.4491 14.9125 18.1216 17.5505 18.2945 18.2307L18.6088 19.4674L17.627 20.4628C16.8975 21.2024 16.6344 21.441 16.6031 21.3912Z" fill="#436DFF"/>
</svg>
