<svg width="22" height="22" viewBox="0 0 22 22" fill="none" xmlns="http://www.w3.org/2000/svg">
<path d="M20.1851 3.86318H16.4185V0.965795C16.4185 0.434608 15.9839 0 15.4527 0C14.9215 0 14.4869 0.434608 14.4869 0.965795V3.86318H10.7203C10.1505 3.86318 9.70625 4.35574 9.75454 4.92556L9.87043 6.09417C13.4246 6.91509 16.4185 9.43582 16.4185 13.5211L16.4378 21.2475H18.0797C18.891 21.2475 19.5574 20.6197 19.6539 19.8278L21.1413 4.92556C21.1992 4.35574 20.7549 3.86318 20.1851 3.86318ZM13.5211 19.3159H0.965796C0.434608 19.3159 0 19.7505 0 20.2817C0 20.8129 0.434608 21.2475 0.965796 21.2475H13.5211C14.0523 21.2475 14.4869 20.8129 14.4869 20.2817C14.4869 19.7505 14.0523 19.3159 13.5211 19.3159ZM1.06238 13.5211H13.4246C14.0234 13.5211 14.4966 12.9803 14.3807 12.4008C13.7529 9.28129 10.4982 7.7167 7.24347 7.7167C3.98874 7.7167 0.743663 9.28129 0.106238 12.4008C-0.00965794 12.9803 0.47324 13.5211 1.06238 13.5211ZM13.5211 15.4527H0.965796C0.434608 15.4527 0 15.8873 0 16.4185C0 16.9497 0.434608 17.3843 0.965796 17.3843H13.5211C14.0523 17.3843 14.4869 16.9497 14.4869 16.4185C14.4869 15.8873 14.0523 15.4527 13.5211 15.4527Z" fill="#FFA41B"/>
</svg>
