<svg width="20" height="22" viewBox="0 0 20 22" fill="none" xmlns="http://www.w3.org/2000/svg">
<path d="M6.9934 20.5139V17.1915C6.99339 16.3496 7.6586 15.6656 8.48256 15.6603H11.508C12.3357 15.6603 13.0066 16.3458 13.0066 17.1915V20.5043C13.0066 21.2345 13.5832 21.828 14.2978 21.8333H16.3619C17.3259 21.8358 18.2513 21.4463 18.9339 20.7507C19.6164 20.0551 20 19.1106 20 18.1256V8.68796C20 7.89229 19.6548 7.13756 19.0575 6.62708L12.0452 0.897083C10.8195 -0.105158 9.06881 -0.0727818 7.87936 0.974125L1.01791 6.62708C0.392359 7.12252 0.0184761 7.87948 0 8.68796V18.116C0 20.169 1.62882 21.8333 3.63808 21.8333H5.65504C5.99913 21.8358 6.32999 21.698 6.57418 21.4503C6.81838 21.2025 6.95571 20.8655 6.9557 20.5139H6.9934Z" fill="#FA4560"/>
</svg>
