<svg width="19" height="22" viewBox="0 0 19 22" fill="none" xmlns="http://www.w3.org/2000/svg">
<path d="M4.26919 0.776712C4.26919 0.347739 4.61693 0 5.04589 0H5.82797C6.25693 0 6.60467 0.347739 6.60467 0.776712V1.55455H4.26919V0.776712ZM2.33011 3.10914C1.90115 3.10914 1.55341 3.45689 1.55341 3.88585V5.43925H9.32045V3.88585C9.32045 3.45689 8.97271 3.10914 8.54375 3.10914H2.33011ZM10.1012 6.99266C10.5081 6.99342 10.8415 7.30704 10.8739 7.70577V21.75H10.0972C10.0716 21.75 10.0463 21.7488 10.0213 21.7464H6.9691C6.54015 21.7464 6.1924 21.3986 6.1924 20.9697V19.5976C6.1924 19.1687 5.84465 18.8209 5.4157 18.8209C4.98674 18.8209 4.63899 19.1687 4.63899 19.5976V20.9697C4.63899 21.3986 4.29124 21.7464 3.86229 21.7464H0.776704C0.347746 21.7464 0 21.3986 0 20.9697V7.76937C0 7.34064 0.347358 6.99305 0.776005 6.99266H10.1012ZM3.87594 11.6529C4.3049 11.6529 4.65265 11.3051 4.65265 10.8762V10.0995C4.65265 9.67052 4.3049 9.32278 3.87594 9.32278C3.44697 9.32278 3.09924 9.67052 3.09924 10.0995V10.8762C3.09924 11.3051 3.44697 11.6529 3.87594 11.6529ZM3.09924 14.7539C3.09924 15.183 3.44697 15.5306 3.87594 15.5306C4.3049 15.5306 4.65265 15.183 4.65265 14.7539V13.9772C4.65265 13.5483 4.3049 13.2005 3.87594 13.2005C3.44697 13.2005 3.09924 13.5483 3.09924 13.9772V14.7539ZM6.2144 14.7539C6.2144 15.183 6.56214 15.5306 6.9911 15.5306C7.42006 15.5306 7.7678 15.183 7.7678 14.7539V13.9772C7.7678 13.5483 7.42006 13.2005 6.9911 13.2005C6.56214 13.2005 6.2144 13.5483 6.2144 13.9772V14.7539ZM6.2144 10.8762C6.2144 11.3051 6.56214 11.6529 6.9911 11.6529C7.42006 11.6529 7.7678 11.3051 7.7678 10.8762V10.0995C7.7678 9.67052 7.42006 9.32278 6.9911 9.32278C6.56214 9.32278 6.2144 9.67052 6.2144 10.0995V10.8762ZM12.4273 21.75H17.8642C18.2931 21.75 18.6409 21.4024 18.6409 20.9733V16.3131C18.6409 12.715 15.9224 9.75181 12.4273 9.36543V21.75ZM13.9807 14.7648C13.9807 14.3359 14.3285 13.9881 14.7574 13.9881H15.5341C15.963 13.9881 16.3108 14.3359 16.3108 14.7648C16.3108 15.1938 15.963 15.5415 15.5341 15.5415H14.7574C14.3285 15.5415 13.9807 15.1938 13.9807 14.7648ZM14.7574 17.096H15.5341C15.963 17.096 16.3108 17.4438 16.3108 17.8727C16.3108 18.3016 15.963 18.6494 15.5341 18.6494H14.7574C14.3285 18.6494 13.9807 18.3016 13.9807 17.8727C13.9807 17.4438 14.3285 17.096 14.7574 17.096Z" fill="#FF5D5D"/>
</svg>
