<svg width="16" height="14" viewBox="0 0 16 14" fill="none" xmlns="http://www.w3.org/2000/svg">
<path d="M13.625 0.8125H2.375C1.92745 0.8125 1.49822 0.99029 1.18176 1.30676C0.86529 1.62322 0.6875 2.05245 0.6875 2.5V8.6875C0.6875 9.13505 0.86529 9.56428 1.18176 9.88074C1.49822 10.1972 1.92745 10.375 2.375 10.375H2.9375V12.625C2.93712 12.7348 2.96887 12.8423 3.02884 12.9342C3.08881 13.0262 3.17438 13.0986 3.275 13.1425C3.34654 13.1714 3.42285 13.1867 3.5 13.1875C3.64211 13.187 3.77876 13.1327 3.8825 13.0356L6.74563 10.375H13.625C14.0726 10.375 14.5018 10.1972 14.8182 9.88074C15.1347 9.56428 15.3125 9.13505 15.3125 8.6875V2.5C15.3125 2.05245 15.1347 1.62322 14.8182 1.30676C14.5018 0.99029 14.0726 0.8125 13.625 0.8125ZM9.6875 7.5625H4.0625C3.91332 7.5625 3.77024 7.50324 3.66475 7.39775C3.55926 7.29226 3.5 7.14918 3.5 7C3.5 6.85082 3.55926 6.70774 3.66475 6.60225C3.77024 6.49676 3.91332 6.4375 4.0625 6.4375H9.6875C9.83668 6.4375 9.97976 6.49676 10.0852 6.60225C10.1907 6.70774 10.25 6.85082 10.25 7C10.25 7.14918 10.1907 7.29226 10.0852 7.39775C9.97976 7.50324 9.83668 7.5625 9.6875 7.5625ZM11.9375 4.75H4.0625C3.91332 4.75 3.77024 4.69074 3.66475 4.58525C3.55926 4.47976 3.5 4.33668 3.5 4.1875C3.5 4.03832 3.55926 3.89524 3.66475 3.78975C3.77024 3.68426 3.91332 3.625 4.0625 3.625H11.9375C12.0867 3.625 12.2298 3.68426 12.3352 3.78975C12.4407 3.89524 12.5 4.03832 12.5 4.1875C12.5 4.33668 12.4407 4.47976 12.3352 4.58525C12.2298 4.69074 12.0867 4.75 11.9375 4.75Z" fill="#FA4560"/>
</svg>
