<svg width="17" height="22" viewBox="0 0 17 22" fill="none" xmlns="http://www.w3.org/2000/svg">
<path d="M9.66386 18.6754C10.1612 18.6913 10.6495 18.8227 11.0953 19.0606H11.1221C11.4946 19.3898 11.5578 19.9774 11.2653 20.3895C10.7325 21.2155 9.88008 21.7363 8.94815 21.8051C7.99069 21.9288 7.02649 21.6417 6.26425 21.0059C5.87223 20.7146 5.61748 20.2541 5.56643 19.7443C5.56643 19.2051 6.03164 18.9547 6.46107 18.8488C6.96404 18.734 7.47674 18.6759 7.99089 18.6754H9.66386ZM8.53662 0.166626C11.6321 0.166626 14.8259 2.59338 15.1569 6.10831C15.2106 6.83056 15.1569 7.5817 15.2106 8.31357C15.3862 9.25739 15.7906 10.1345 16.3826 10.8559C16.7506 11.4488 16.9638 12.1373 16.9999 12.8493V13.0708C17.0054 14.0315 16.6876 14.962 16.1052 15.6901C15.3671 16.5451 14.3657 17.0824 13.2871 17.202C10.1005 17.645 6.87428 17.645 3.6877 17.202C2.59645 17.0914 1.5809 16.5534 0.833815 15.6901C0.269727 14.955 -0.0260731 14.0238 0.00180533 13.0708V12.8493C0.036718 12.1399 0.243355 11.4527 0.60121 10.8559C1.19585 10.1338 1.60588 9.2577 1.79107 8.31357C1.84475 7.5817 1.79107 6.84019 1.84475 6.10831C2.18471 2.59338 5.31593 0.166626 8.44715 0.166626H8.53662Z" fill="#AFAFAF"/>
</svg>
