<svg width="22" height="20" viewBox="0 0 22 20" fill="none" xmlns="http://www.w3.org/2000/svg">
<path d="M8.83317 5.66684L5.31234 9.18767C5.64817 9.31767 5.919 9.48017 6.1465 9.61017C6.54734 9.85934 6.78567 10.0002 7.39234 10.0002C7.999 10.0002 8.23734 9.85934 8.63817 9.61017C9.1365 9.31767 9.80817 8.91684 11.0107 8.91684C12.2132 8.91684 12.8848 9.31767 13.3723 9.61017C13.7732 9.84851 14.0223 10.0002 14.6182 10.0002C15.214 10.0002 15.4632 9.85934 15.864 9.61017C15.994 9.53434 16.1457 9.44767 16.3082 9.361L9.35317 2.41684C7.674 0.737672 6.12484 0.239339 3.4165 0.250172V2.95851C5.38817 2.94767 6.54734 3.38101 7.74984 4.58351L8.83317 5.66684ZM21.8332 14.8752H21.8115H21.8332ZM3.79567 13.7918C4.3915 13.7918 4.64067 13.9435 5.0415 14.1818C5.529 14.4743 6.20067 14.8752 7.40317 14.8752C8.60567 14.8752 9.27734 14.4743 9.76484 14.1818C10.1657 13.9327 10.404 13.7918 11.0107 13.7918C11.6065 13.7918 11.8557 13.9435 12.2565 14.1818C12.744 14.4743 13.4157 14.8752 14.6182 14.8752C15.8207 14.8752 16.4923 14.4743 16.9798 14.1818C17.3807 13.9327 17.619 13.7918 18.2257 13.7918C18.8215 13.7918 19.0707 13.9435 19.4715 14.1818C19.959 14.4743 20.6198 14.8643 21.8115 14.8752V12.7085C21.2157 12.7085 20.9665 12.5568 20.5657 12.3185C20.0782 12.026 19.4065 11.6252 18.204 11.6252C17.0015 11.6252 16.3298 12.026 15.8423 12.3185C15.4415 12.5677 15.1923 12.7085 14.5965 12.7085C14.0007 12.7085 13.7515 12.5568 13.3507 12.3185C12.8632 12.026 12.1915 11.6252 10.989 11.6252C9.7865 11.6252 9.11484 12.026 8.62734 12.3185C8.2265 12.5677 7.98817 12.7085 7.3815 12.7085C6.78567 12.7085 6.5365 12.5568 6.13567 12.3185C5.64817 12.026 4.9765 11.6252 3.774 11.6252C2.5715 11.6252 1.89984 12.026 1.41234 12.3185C1.0115 12.5677 0.773171 12.7085 0.166504 12.7085V14.8752C1.369 14.8752 2.04067 14.4743 2.54984 14.1818C2.95067 13.9327 3.19984 13.7918 3.79567 13.7918ZM18.2257 16.5002C17.0232 16.5002 16.3515 16.901 15.864 17.1935C15.4632 17.4427 15.214 17.5835 14.6182 17.5835C14.0223 17.5835 13.7732 17.4318 13.3723 17.1935C12.8848 16.901 12.2132 16.5002 11.0107 16.5002C9.80817 16.5002 9.1365 16.901 8.63817 17.1935C8.23734 17.4427 7.999 17.5835 7.39234 17.5835C6.78567 17.5835 6.54734 17.4427 6.1465 17.1935C5.659 16.901 4.98734 16.5002 3.78484 16.5002C2.58234 16.5002 1.91067 16.901 1.41234 17.1935C1.0115 17.4427 0.773171 17.5835 0.166504 17.5835V19.7502C1.369 19.7502 2.04067 19.3493 2.539 19.0568C2.93984 18.8077 3.189 18.6668 3.78484 18.6668C4.38067 18.6668 4.62984 18.8077 5.03067 19.0568C5.51817 19.3493 6.18984 19.7502 7.39234 19.7502C8.59484 19.7502 9.2665 19.3493 9.76484 19.0568C10.1657 18.8077 10.404 18.6668 11.0107 18.6668C11.6065 18.6668 11.8557 18.8185 12.2565 19.0568C12.744 19.3493 13.4157 19.7502 14.6182 19.7502C15.8207 19.7502 16.4815 19.3493 16.9798 19.0568C17.3807 18.8077 17.619 18.6668 18.2257 18.6668C18.8215 18.6668 19.0707 18.8185 19.4715 19.0568C19.959 19.3493 20.6307 19.7502 21.8332 19.7502V17.5835C21.2265 17.5835 20.9882 17.4427 20.5873 17.1935C20.0998 16.901 19.4282 16.5002 18.2257 16.5002Z" fill="black"/>
</svg>
