<svg width="21" height="21" viewBox="0 0 21 21" fill="none" xmlns="http://www.w3.org/2000/svg">
<path d="M20.1813 18.6032L16.4028 14.8359C17.6219 13.2828 18.2834 11.3649 18.2809 9.39047C18.2809 7.6321 17.7595 5.91322 16.7826 4.45119C15.8057 2.98916 14.4172 1.84965 12.7927 1.17675C11.1682 0.503852 9.38061 0.327791 7.65603 0.670832C5.93145 1.01387 4.34732 1.86061 3.10396 3.10396C1.86061 4.34732 1.01387 5.93145 0.670832 7.65603C0.327791 9.38061 0.503852 11.1682 1.17675 12.7927C1.84965 14.4172 2.98916 15.8057 4.45119 16.7826C5.91322 17.7595 7.6321 18.2809 9.39047 18.2809C11.3649 18.2834 13.2828 17.6219 14.8359 16.4028L18.6032 20.1813C18.7065 20.2854 18.8294 20.3681 18.9649 20.4245C19.1003 20.481 19.2455 20.51 19.3922 20.51C19.539 20.51 19.6842 20.481 19.8196 20.4245C19.9551 20.3681 20.078 20.2854 20.1813 20.1813C20.2854 20.078 20.3681 19.9551 20.4245 19.8196C20.481 19.6842 20.51 19.539 20.51 19.3922C20.51 19.2455 20.481 19.1003 20.4245 18.9649C20.3681 18.8294 20.2854 18.7065 20.1813 18.6032ZM2.72262 9.39047C2.72262 8.0717 3.11368 6.78254 3.84636 5.68601C4.57903 4.58949 5.62041 3.73485 6.8388 3.23018C8.05719 2.72551 9.39787 2.59346 10.6913 2.85074C11.9847 3.10802 13.1728 3.74307 14.1054 4.67559C15.0379 5.60811 15.6729 6.7962 15.9302 8.08964C16.1875 9.38308 16.0554 10.7238 15.5508 11.9421C15.0461 13.1605 14.1915 14.2019 13.0949 14.9346C11.9984 15.6673 10.7092 16.0583 9.39047 16.0583C7.62205 16.0583 5.92605 15.3558 4.67559 14.1054C3.42512 12.8549 2.72262 11.1589 2.72262 9.39047Z" fill="#AFAFAF"/>
</svg>
