<svg width="23" height="17" viewBox="0 0 23 17" fill="none" xmlns="http://www.w3.org/2000/svg">
<path d="M0.621976 6.40275C1.17448 6.95525 2.05198 7.00942 2.64781 6.51108C7.70698 2.35108 15.052 2.35108 20.122 6.50025C20.7286 6.99858 21.617 6.95525 22.1695 6.40275C22.8086 5.76358 22.7653 4.70192 22.0611 4.12775C15.8753 -0.931418 6.92698 -0.931418 0.73031 4.12775C0.0261432 4.69108 -0.0280237 5.75275 0.621976 6.40275ZM9.02864 14.8094L10.6211 16.4019C11.0436 16.8244 11.7261 16.8244 12.1486 16.4019L13.7411 14.8094C14.2503 14.3002 14.142 13.4227 13.492 13.0869C12.1703 12.4044 10.5886 12.4044 9.25614 13.0869C8.63864 13.4227 8.51948 14.3002 9.02864 14.8094ZM4.98781 10.7686C5.51864 11.2994 6.35281 11.3536 6.97031 10.9094C9.61364 9.03525 13.167 9.03525 15.8103 10.9094C16.4278 11.3428 17.262 11.2994 17.7928 10.7686L17.8036 10.7577C18.4536 10.1077 18.4103 9.00275 17.6628 8.47192C13.9361 5.77442 8.85531 5.77442 5.11781 8.47192C4.37031 9.01358 4.32698 10.1077 4.98781 10.7686Z" fill="black"/>
</svg>
